<svg width="141" height="98" viewBox="0 0 141 98" fill="none" xmlns="http://www.w3.org/2000/svg">
<path d="M0.164062 56.8044L70.4503 97.3787V81.1485L0.164062 40.5742V56.8044Z" fill="#001F54"/>
<path d="M70.4492 81.1479L112.621 56.8037V73.0339L70.4492 97.378V81.1479Z" fill="#001F54"/>
<path d="M56.3945 56.8044L84.509 40.5742L98.5663 48.6882L70.4518 64.9184L56.3945 56.8044Z" fill="#001F54"/>
<path d="M28.2773 40.5749V24.3447L42.3346 32.4588V48.6889L28.2773 40.5749Z" fill="#001F54"/>
<path d="M42.3359 32.4575L70.4504 16.2295V32.4575L42.3359 48.6877V32.4575Z" fill="#001F54"/>
<path d="M98.5637 32.4575V48.6877L70.4492 32.4575V16.2295L98.5637 32.4575Z" fill="#001F54"/>
<path d="M84.5078 8.11403L98.5651 0L112.622 8.11403L98.5651 16.2301L84.5078 8.11403Z" fill="#001F54"/>
<path d="M98.5664 32.4594L140.738 8.11523V40.5755L112.624 56.8057L98.5664 48.6896V32.4594Z" fill="#001F54"/>
</svg>
